<svg width="200" height="200" viewBox="0 0 200 200" fill="none" xmlns="http://www.w3.org/2000/svg">
<path d="M167.087 69.0198L166.948 68.7763C166.317 67.6235 164.964 66.9415 163.974 66.4241L115.982 42.0234C114.894 41.4541 113.857 40.9742 112.568 41.0011C111.278 40.9742 110.146 41.5194 109.15 42.0242L61.2022 66.4097C59.531 67.3477 58.6887 67.7095 58.0738 68.9966C57.6236 69.8273 57.4893 70.7266 57.6075 71.6011L57.637 128.058C57.3694 129.317 57.6191 130.651 58.5769 131.779C59.1936 132.594 60.069 133.177 61.0554 133.528L108.972 157.868C109.956 158.591 111.195 159.031 112.569 158.997V96.1486L167.087 69.0198Z" fill="url(#paint0_linear_2864_323)"/>
<path d="M112.567 96.1485V158.997C113.936 159.033 115.18 158.59 116.163 157.868L164.079 133.528C165.065 133.177 165.94 132.594 166.558 131.779C167.514 130.651 167.766 129.316 167.497 128.058L167.526 71.7032C167.669 70.8036 167.545 69.8753 167.088 69.0196L112.567 96.1485Z" fill="url(#paint1_linear_2864_323)"/>
<path d="M86.8067 67.3046V77.4802H88.6819C89.1428 77.4802 89.4696 77.5667 89.6602 77.7359C89.85 77.906 89.9457 78.1306 89.9457 78.409C89.9457 78.6874 89.85 78.9115 89.6602 79.0825C89.4696 79.2526 89.1428 79.3373 88.6819 79.3373H83.074C82.6131 79.3373 82.2873 79.2505 82.0957 79.0768C81.906 78.9041 81.811 78.6777 81.811 78.4003C81.811 78.121 81.906 77.898 82.0957 77.7315C82.2873 77.5642 82.6131 77.4802 83.074 77.4802H84.9493V69.7311L83.2951 70.166C83.0293 70.2394 82.8288 70.2744 82.6981 70.2744C82.4618 70.2744 82.2586 70.1813 82.0868 69.9942C81.9149 69.8063 81.8299 69.5754 81.8299 69.3032C81.8299 69.0553 81.8934 68.8603 82.0196 68.718C82.1476 68.5766 82.4117 68.4505 82.8153 68.3421L86.8067 67.3046Z" fill="#35E1C8"/>
<path d="M95.2635 77.4802H99.3112C99.5349 77.2958 99.7435 77.2018 99.9431 77.2018C100.228 77.2018 100.454 77.2949 100.622 77.4837C100.79 77.6708 100.871 77.9901 100.871 78.4448V79.3364H92.4233V77.3683C95.7612 74.6043 97.7787 72.8284 98.4724 72.0362C98.8233 71.6307 98.997 71.2457 98.997 70.8841C98.997 70.4294 98.8 70.029 98.4071 69.6817C98.0124 69.3344 97.4887 69.1599 96.8326 69.1599C96.1721 69.1599 95.6216 69.3545 95.1821 69.7421C94.9538 69.9479 94.7712 70.254 94.6333 70.6594C94.5483 70.9146 94.431 71.0961 94.2816 71.2053C94.133 71.3145 93.9486 71.3692 93.7311 71.3692C93.4778 71.3692 93.2558 71.2787 93.0723 71.0969C92.8879 70.9161 92.793 70.7041 92.793 70.4606C92.793 70.0981 92.9613 69.6434 93.2961 69.0991C93.6291 68.554 94.1187 68.1182 94.7605 67.7915C95.4023 67.4656 96.1004 67.3019 96.855 67.3019C98.0249 67.3019 98.9845 67.6572 99.7319 68.3679C100.48 69.0786 100.854 69.9387 100.854 70.9492C100.854 71.463 100.748 71.9394 100.534 72.378C100.319 72.8175 99.8071 73.4246 98.9934 74.197C98.3561 74.8093 97.1128 75.9031 95.2635 77.4802Z" fill="#35E1C8"/>
<path d="M110.777 73.1328C111.326 73.5069 111.737 73.9381 112.01 74.4295C112.281 74.9209 112.418 75.4707 112.418 76.0803C112.418 76.7373 112.237 77.3439 111.878 77.9016C111.519 78.4592 110.998 78.8817 110.316 79.1673C109.633 79.4537 108.737 79.596 107.634 79.596C106.195 79.596 105.114 79.3731 104.389 78.9265C103.985 78.6723 103.782 78.3717 103.782 78.0217C103.782 77.7559 103.872 77.5304 104.048 77.3469C104.227 77.1625 104.443 77.0703 104.698 77.0703C104.872 77.0703 105.053 77.1299 105.241 77.2499C105.507 77.4316 105.757 77.5527 105.994 77.6118C106.356 77.6968 106.854 77.7377 107.489 77.7377C108.569 77.7377 109.352 77.5991 109.835 77.3181C110.319 77.0388 110.561 76.6413 110.561 76.1293C110.561 75.7497 110.42 75.3836 110.14 75.0309C109.86 74.6774 109.485 74.4052 109.012 74.2127C108.741 74.1044 108.285 74.0293 107.639 73.9872C107.331 73.9693 107.094 73.8746 106.929 73.7027C106.761 73.5326 106.679 73.3205 106.679 73.0681C106.679 72.8031 106.771 72.5811 106.952 72.4003C107.133 72.2203 107.362 72.131 107.64 72.131C108.254 72.131 108.583 72.1272 108.627 72.121C108.867 72.0959 109.108 72.0192 109.35 71.8841C109.591 71.7516 109.786 71.567 109.933 71.3351C110.079 71.1015 110.154 70.8615 110.154 70.6127C110.154 70.2179 109.98 69.8782 109.633 69.5899C109.285 69.3017 108.763 69.1581 108.072 69.1581C107.178 69.1581 106.495 69.4187 106.024 69.9387C105.887 70.09 105.775 70.186 105.69 70.2281C105.563 70.2952 105.422 70.3281 105.264 70.3281C105.01 70.3281 104.795 70.2367 104.613 70.055C104.43 69.8724 104.34 69.6486 104.34 69.3819C104.34 68.9639 104.618 68.5576 105.173 68.1647C105.982 67.5873 106.993 67.3011 108.208 67.3011C109.354 67.3011 110.274 67.6266 110.969 68.2809C111.664 68.9353 112.011 69.7222 112.011 70.6424C112.011 71.1204 111.908 71.5671 111.702 71.9815C111.496 72.396 111.187 72.7819 110.777 73.1328Z" fill="#35E1C8"/>
<path d="M121.989 67.6017V74.8806C122.453 74.8806 122.777 74.9659 122.969 75.1314C123.158 75.2997 123.253 75.5227 123.253 75.8001C123.253 76.0794 123.158 76.3039 122.969 76.4776C122.777 76.6503 122.453 76.7381 121.989 76.7381V77.4802C122.453 77.4802 122.777 77.5667 122.969 77.7359C123.158 77.906 123.253 78.1306 123.253 78.409C123.253 78.6873 123.158 78.9115 122.969 79.0825C122.777 79.2526 122.453 79.3373 121.989 79.3373H119.409C118.948 79.3373 118.622 79.2505 118.432 79.0768C118.241 78.904 118.146 78.6777 118.146 78.4002C118.146 78.121 118.241 77.898 118.432 77.7315C118.622 77.5641 118.948 77.4802 119.409 77.4802H120.135V76.7381H115.083V75.1896L119.535 67.6017H121.989ZM120.135 74.8797V70.2433L117.412 74.8797H120.135Z" fill="#35E1C8"/>
<path d="M128.817 69.458V71.6682C129.508 71.4462 130.136 71.3343 130.698 71.3343C131.842 71.3343 132.793 71.7246 133.552 72.5052C134.309 73.2848 134.687 74.2918 134.687 75.5253C134.687 76.7954 134.305 77.7906 133.539 78.5148C132.775 79.2371 131.603 79.5978 130.026 79.5978C128.634 79.5978 127.533 79.3365 126.722 78.812C126.251 78.5094 126.015 78.1638 126.015 77.7718C126.015 77.5256 126.107 77.3093 126.291 77.1249C126.476 76.9414 126.695 76.85 126.949 76.85C127.162 76.85 127.392 76.9493 127.64 77.1507C127.887 77.3521 128.146 77.4919 128.419 77.5707C128.806 77.6844 129.302 77.7398 129.908 77.7398C131.034 77.7398 131.801 77.5599 132.212 77.2001C132.623 76.8411 132.83 76.2862 132.83 75.5414C132.83 74.8101 132.631 74.2343 132.235 73.8172C131.838 73.3983 131.327 73.1909 130.703 73.1909C130.031 73.1909 129.266 73.41 128.405 73.8504C128.211 73.9552 128.043 74.0069 127.896 74.0069C127.631 74.0069 127.408 73.9105 127.229 73.7171C127.051 73.5238 126.961 73.2733 126.961 72.9654V67.6009H132.662C133.11 67.6009 133.429 67.6869 133.621 67.8579C133.812 68.0306 133.906 68.2561 133.906 68.5336C133.906 68.8057 133.811 69.0278 133.621 69.1988C133.429 69.3715 133.109 69.4571 132.66 69.4571L128.817 69.458Z" fill="#35E1C8"/>
<path d="M139.765 72.9859C140.213 72.6118 140.64 72.3387 141.044 72.1677C141.452 71.9959 141.884 71.9099 142.345 71.9099C143.32 71.9099 144.174 72.2965 144.906 73.0681C145.637 73.8406 146.004 74.81 146.004 75.9754C146.004 77.0558 145.664 77.9305 144.984 78.5965C144.303 79.2642 143.382 79.5969 142.213 79.5969C141.241 79.5969 140.439 79.3715 139.81 78.9177C139.182 78.4648 138.708 77.7676 138.386 76.8251C138.066 75.8825 137.906 74.8317 137.906 73.6734C137.906 72.2833 138.223 71.1286 138.86 70.2075C139.491 69.2865 140.238 68.573 141.097 68.0646C141.955 67.558 142.862 67.3037 143.818 67.3037C144.573 67.3037 145.158 67.4523 145.576 67.7486C145.85 67.9491 145.985 68.2033 145.985 68.5122C145.985 68.7861 145.893 69.0144 145.712 69.1997C145.53 69.3849 145.312 69.4768 145.057 69.4768C144.914 69.4768 144.704 69.4038 144.432 69.2543C144.269 69.1675 144.111 69.1236 143.959 69.1236C143.367 69.1236 142.751 69.2919 142.115 69.6275C141.48 69.9632 140.93 70.4766 140.462 71.173C140.144 71.6554 139.91 72.2609 139.765 72.9859ZM140.044 75.8574C140.237 76.5824 140.499 77.0763 140.828 77.3412C141.158 77.6071 141.63 77.739 142.24 77.739C142.851 77.739 143.323 77.5795 143.653 77.2599C143.983 76.9404 144.148 76.5053 144.148 75.9566C144.148 75.3283 143.959 74.8073 143.581 74.3902C143.203 73.974 142.778 73.7652 142.304 73.7652C141.929 73.7652 141.528 73.9498 141.101 74.3176C140.675 74.6873 140.321 75.2004 140.044 75.8574Z" fill="#35E1C8"/>
<path d="M154.596 69.4579H150.325C150.325 69.9198 150.242 70.245 150.075 70.4357C149.907 70.6263 149.685 70.7211 149.407 70.7211C149.13 70.7211 148.903 70.6263 148.73 70.4357C148.555 70.245 148.468 69.9198 148.468 69.4579V67.6017H156.547V69.4579L153.535 78.4055C153.409 78.7796 153.267 79.0276 153.111 79.152C152.958 79.2755 152.77 79.3373 152.553 79.3373C152.292 79.3373 152.07 79.2479 151.885 79.0707C151.699 78.8935 151.606 78.6884 151.606 78.4575C151.606 78.3214 151.656 78.1039 151.754 77.8067L154.596 69.4579Z" fill="#35E1C8"/>
<path d="M166.414 73.3832C166.89 73.752 167.248 74.1699 167.485 74.638C167.725 75.1061 167.844 75.6244 167.844 76.1856C167.844 76.8077 167.691 77.3827 167.388 77.9064C167.082 78.4291 166.604 78.8416 165.953 79.1441C165.303 79.4467 164.579 79.5978 163.786 79.5978C162.99 79.5978 162.273 79.4467 161.635 79.1441C160.997 78.8416 160.525 78.4288 160.22 77.9007C159.916 77.3744 159.765 76.8033 159.765 76.1856C159.765 75.6244 159.883 75.107 160.12 74.638C160.36 74.1699 160.717 73.752 161.192 73.3832C160.776 72.9965 160.461 72.5866 160.248 72.1524C160.037 71.7192 159.931 71.2599 159.931 70.7783C159.931 69.8304 160.292 69.016 161.017 68.3312C161.741 67.6473 162.669 67.3054 163.803 67.3054C164.937 67.3054 165.865 67.6482 166.589 68.3312C167.312 69.0169 167.674 69.8313 167.674 70.7783C167.674 71.2661 167.57 71.7279 167.36 72.1612C167.155 72.5944 166.836 73.0019 166.414 73.3832ZM165.764 70.8176C165.764 70.3594 165.584 69.9682 165.227 69.6441C164.869 69.3228 164.387 69.1599 163.781 69.1599C163.168 69.1599 162.683 69.3228 162.326 69.6441C161.968 69.9673 161.788 70.3594 161.788 70.8176C161.788 71.2831 161.967 71.6772 162.326 71.9995C162.683 72.3226 163.168 72.4837 163.781 72.4837C164.387 72.4837 164.869 72.3226 165.227 71.9995C165.584 71.6772 165.764 71.2831 165.764 70.8176ZM165.986 76.2726C165.986 75.7812 165.777 75.3361 165.359 74.9387C164.942 74.5404 164.423 74.3426 163.805 74.3426C163.185 74.3426 162.667 74.5404 162.249 74.9387C161.831 75.3361 161.621 75.7874 161.621 76.2923C161.621 76.6808 161.803 77.0189 162.164 77.308C162.523 77.5962 163.071 77.7398 163.805 77.7398C164.544 77.7398 165.091 77.5962 165.449 77.308C165.807 77.0198 165.986 76.6745 165.986 76.2726Z" fill="#35E1C8"/>
<path d="M177.551 74.4527C177.087 74.851 176.66 75.135 176.273 75.3006C175.885 75.4662 175.476 75.5484 175.048 75.5484C174.05 75.5484 173.179 75.1502 172.432 74.3526C171.684 73.5551 171.312 72.5653 171.312 71.381C171.312 70.4573 171.567 69.6168 172.079 68.8623C172.779 67.8239 173.764 67.3046 175.037 67.3046C175.948 67.3046 176.746 67.5776 177.427 68.1245C178.109 68.6705 178.608 69.4583 178.93 70.4886C179.248 71.5188 179.408 72.5917 179.408 73.7097C179.408 75.6055 178.675 77.1273 177.211 78.2757C176.076 79.1574 174.835 79.5987 173.483 79.5987C172.735 79.5987 172.156 79.4475 171.745 79.1459C171.468 78.9472 171.33 78.685 171.33 78.3583C171.33 78.0933 171.419 77.8721 171.598 77.694C171.775 77.5158 171.994 77.4265 172.255 77.4265C172.401 77.4265 172.564 77.472 172.745 77.5607C172.981 77.6815 173.228 77.7407 173.489 77.7407C174.425 77.7407 175.29 77.4226 176.081 76.7862C176.874 76.148 177.362 75.3702 177.551 74.4527ZM177.291 71.5257C177.091 70.6673 176.796 70.0595 176.406 69.7005C176.016 69.3407 175.569 69.1599 175.066 69.1599C174.54 69.1599 174.092 69.3616 173.723 69.7626C173.352 70.1654 173.168 70.6981 173.168 71.3622C173.168 72.0568 173.354 72.6188 173.726 73.0484C174.101 73.4772 174.525 73.6922 175.003 73.6922C175.844 73.6922 176.607 72.9704 177.291 71.5257Z" fill="#35E1C8"/>
<path d="M190.115 72.4317V74.4698C190.115 75.6781 189.765 76.8337 189.065 77.94C188.368 79.0446 187.366 79.5969 186.065 79.5969C185.315 79.5969 184.681 79.4324 184.163 79.103C183.646 78.7754 183.156 78.1675 182.693 77.2822C182.228 76.3988 181.999 75.4597 181.999 74.4698V72.4317C181.999 71.2296 182.347 70.0749 183.043 68.9658C183.739 67.8586 184.737 67.3046 186.038 67.3046C186.782 67.3046 187.413 67.4683 187.932 67.7941C188.447 68.1199 188.941 68.7252 189.41 69.6105C189.88 70.4949 190.115 71.4355 190.115 72.4317ZM188.258 72.4317C188.258 71.423 187.976 70.5403 187.411 69.7866C187.089 69.3695 186.637 69.1621 186.053 69.1621C185.487 69.1621 185.026 69.3913 184.666 69.8505C184.126 70.5442 183.857 71.4041 183.857 72.4326V74.4706C183.857 75.4848 184.142 76.3665 184.713 77.1157C185.029 77.5319 185.481 77.7399 186.072 77.7399C186.629 77.7399 187.089 77.5106 187.447 77.0524C187.987 76.3578 188.258 75.4964 188.258 74.4698V72.4317Z" fill="#35E1C8"/>
<path d="M26.1733 88.2053C26.7328 85.4645 25.161 82.1937 22.6582 80.8994C20.1573 79.6033 17.6752 80.7722 17.1131 83.5122C16.5527 86.2521 18.1272 89.5237 20.6299 90.819C23.1299 92.1142 25.613 90.9452 26.1733 88.2053ZM36.7982 59.3588L112.565 96.1494L112.567 158.998C111.195 159.034 109.952 158.592 108.968 157.869L32.917 120.668L19.6722 114.397C18.6249 113.933 17.6233 113.164 16.7971 112.059C16.4588 111.606 16.1499 111.098 15.8814 110.53C15.7588 110.275 15.6433 110.006 15.5395 109.724L10.4365 83.6267C10.1796 81.6682 9.8538 80.7616 10.0713 79.0135C10.3918 77.4211 11.4507 76.5457 12.2616 75.4313L27.1848 57.3789C29.1862 55.9996 31.4034 56.3629 33.2366 57.6079L36.7982 59.2933V59.3588Z" fill="url(#paint2_linear_2864_323)"/>
<path d="M112.567 122.855V158.997C113.936 159.033 115.18 158.59 116.163 157.868L164.079 133.528C165.065 133.177 165.94 132.594 166.558 131.779C167.514 130.651 167.766 129.316 167.497 128.058V126.715C151.511 124.267 132.7 122.855 112.567 122.855Z" fill="url(#paint3_linear_2864_323)"/>
<path d="M48.4954 128.286C66.2309 124.88 88.45 122.855 112.566 122.855L112.568 158.997C111.195 159.033 109.955 158.59 108.971 157.868L48.4954 128.286Z" fill="url(#paint4_linear_2864_323)"/>
<path d="M128.709 92.2762C128.709 89.6455 130.542 89.3705 132.435 91.1813C134.329 92.9903 161.287 120.188 162.899 121.8C164.51 123.412 164.455 125.413 162.121 125.58C159.788 125.747 150.895 125.58 150.895 125.58C150.895 125.58 156.841 139.697 157.341 141.197C157.84 142.697 157.841 143.088 156.063 143.809C154.283 144.532 151.449 145.811 149.893 146.423C148.338 147.033 148.058 146.979 147.392 145.255C146.726 143.531 140.445 128.859 140.445 128.859C140.445 128.859 134.662 134.306 132.998 135.808C131.33 137.308 128.772 137.808 128.772 134.75C128.773 131.694 128.709 92.2762 128.709 92.2762Z" fill="#35E1C8"/>
<path d="M96.4675 100.421L99.8725 102.078V142.887L96.4675 141.231V100.421ZM31.7892 68.9588L35.9147 70.9654V111.776L31.7892 109.767V68.9588ZM38.3172 72.1336L41.4258 73.6446V114.455L38.3172 112.944V72.1336ZM43.0021 74.4125L45.1692 75.468V116.277L43.0021 115.222V74.4125ZM46.7177 76.2197L49.8273 77.7315V118.541L46.7177 117.029V76.2197ZM52.2396 78.905L56.8118 81.1293V121.939L52.2396 119.714V78.905ZM58.2797 81.8438L60.4468 82.8989V123.708L58.2797 122.654V81.8438ZM62.1341 83.718L66.0922 85.6432V126.454L62.1341 124.528V83.718ZM69.0416 87.079L78.0078 91.44V132.25L69.0416 127.888V87.079ZM81.0896 92.9387L87.8495 96.2271V137.036L81.0896 133.749V92.9387ZM90.2895 97.4142L94.9512 99.6812V140.492L90.2895 138.223V97.4142Z" fill="#73E2E1"/>
<defs>
<linearGradient id="paint0_linear_2864_323" x1="168.108" y1="99.0245" x2="56.3502" y2="100.986" gradientUnits="userSpaceOnUse">
<stop stop-color="#8C63CF"/>
<stop offset="1" stop-color="#494DD2"/>
</linearGradient>
<linearGradient id="paint1_linear_2864_323" x1="169.585" y1="103.663" x2="110.772" y2="124.507" gradientUnits="userSpaceOnUse">
<stop stop-color="#252F92"/>
<stop offset="0.8" stop-color="#80CFE3"/>
<stop offset="1" stop-color="#80CFE3"/>
</linearGradient>
<linearGradient id="paint2_linear_2864_323" x1="116.263" y1="85.7585" x2="9.93216" y2="137.091" gradientUnits="userSpaceOnUse">
<stop stop-color="#E857A4"/>
<stop offset="1" stop-color="#643ADD"/>
</linearGradient>
<linearGradient id="paint3_linear_2864_323" x1="168.2" y1="137.17" x2="111.965" y2="140.983" gradientUnits="userSpaceOnUse">
<stop stop-color="#1B2BBB"/>
<stop offset="1" stop-color="#078FDE"/>
</linearGradient>
<linearGradient id="paint4_linear_2864_323" x1="114.205" y1="132.051" x2="48.5187" y2="154.662" gradientUnits="userSpaceOnUse">
<stop stop-color="#2C3CC9"/>
<stop offset="0.9677" stop-color="#D253AC"/>
<stop offset="1" stop-color="#DC83AF"/>
</linearGradient>
</defs>
</svg>
